<svg width="60" height="58" viewBox="0 0 60 58" fill="none" xmlns="http://www.w3.org/2000/svg">
<g filter="url(#filter0_d_1_296)">
<path fill-rule="evenodd" clip-rule="evenodd" d="M32.2744 5.09355V0.104774L26.8308 0.0440674L24.79 3.43035L27.2848 5.92598L32.2744 5.09355ZM26.4532 10.9148L19.8004 4.26112L16.474 7.58835L22.1472 12.6412L26.4532 10.9148ZM33.4478 14.8058L30.1264 12.39L30.7301 9.67317L36.4324 9.25238L43.9168 15.0728L42.2536 20.0624L39.7588 21.7264L37.264 20.0624V17.5676L34.7692 14.2412L33.4478 14.8058ZM53.0644 47.5052H51.4012C50.942 47.5052 50.5696 47.1329 50.5696 46.6736C50.5696 46.2143 50.942 45.842 51.4012 45.842H53.0644C53.5237 45.842 53.896 46.2143 53.896 46.6736C53.896 47.1329 53.5237 47.5052 53.0644 47.5052ZM53.0644 35.8628H54.7277C55.1869 35.8628 55.5593 35.4905 55.5593 35.0312C55.5593 34.5719 55.1869 34.1996 54.7277 34.1996H53.0644C52.6052 34.1996 52.2328 34.5719 52.2328 35.0312C52.2328 35.4905 52.6052 35.8628 53.0644 35.8628ZM43.0852 35.8628L48.0748 32.5364V29.21L43.0852 24.2204L39.7588 27.5468L36.4324 24.2204L33.106 26.7152L36.4324 30.8732L33.9376 35.8628L31.4428 31.7048L25.6216 29.21L28.948 22.5572L31.4428 19.2308L25.6216 15.9044L22.2952 19.2308L11.4844 8.41995L4.8316 15.9044L6.78586 23.9559L4 26.7152L6.4948 34.1996L26.4532 44.1788L28.948 40.0208L33.9376 43.3472L37.264 50L41.422 43.3472H48.0748L48.9064 38.3576L43.0852 35.8628Z" fill="#0E8784"/>
</g>
<defs>
<filter id="filter0_d_1_296" x="0" y="0.0440674" width="59.5592" height="57.9559" filterUnits="userSpaceOnUse" color-interpolation-filters="sRGB">
<feFlood flood-opacity="0" result="BackgroundImageFix"/>
<feColorMatrix in="SourceAlpha" type="matrix" values="0 0 0 0 0 0 0 0 0 0 0 0 0 0 0 0 0 0 127 0" result="hardAlpha"/>
<feOffset dy="4"/>
<feGaussianBlur stdDeviation="2"/>
<feComposite in2="hardAlpha" operator="out"/>
<feColorMatrix type="matrix" values="0 0 0 0 0 0 0 0 0 0 0 0 0 0 0 0 0 0 0.25 0"/>
<feBlend mode="normal" in2="BackgroundImageFix" result="effect1_dropShadow_1_296"/>
<feBlend mode="normal" in="SourceGraphic" in2="effect1_dropShadow_1_296" result="shape"/>
</filter>
</defs>
</svg>
